<svg width="65" height="28" viewBox="0 0 65 28" fill="none" xmlns="http://www.w3.org/2000/svg">
<path d="M58.8527 1.7415H50.5578V2.50233C51.4145 2.5766 51.7073 2.72341 52.0009 2.99458C52.393 3.33829 52.4664 3.87804 52.4664 4.83663V18.2975C52.4422 19.2302 52.393 19.82 52.0018 20.1395C51.6831 20.4098 51.4387 20.5325 50.5578 20.6309V21.3918H63.086L64.4073 17.5358H63.4531C62.4979 19.6482 61.0056 19.8934 59.636 19.8934C58.5098 19.8934 57.7758 19.82 57.2619 19.5005C56.8465 19.2302 56.6997 18.5177 56.6747 17.2897V5.6225C56.6747 4.17339 56.6747 3.38665 57.1643 2.96954C57.4822 2.69923 57.996 2.60078 58.8769 2.52738V1.7415H58.8527ZM3.18533 27.3627C3.5774 27.1899 3.94529 26.9697 4.31145 26.7236L4.53167 26.5768C4.98004 26.2463 5.39044 25.8671 5.75539 25.4463C6.24418 24.9308 6.68461 24.3409 7.10087 23.7278C7.41867 23.2606 7.68811 22.7441 7.95755 22.2286C8.96019 20.2147 9.62084 18.0039 9.96369 15.8172C10.1839 14.3923 10.2815 12.9682 10.2815 11.5684C10.2815 10.1685 10.1839 8.74354 9.96369 7.31947C9.62084 5.13284 8.98523 2.89786 7.95755 0.907271C7.83492 0.68619 7.71229 0.440929 7.59053 0.219849C7.0481 1.22504 6.59749 2.27714 6.24418 3.36334C6.90483 5.32888 7.2969 7.41705 7.44372 9.48018C7.54155 10.8867 7.54155 12.2984 7.44372 13.7049C7.27186 16.2352 6.75802 18.7656 5.77957 21.1232C5.41493 22.0399 4.96443 22.9201 4.43409 23.752C4.31145 23.948 4.21387 24.1449 4.06706 24.3409C3.79766 24.7316 3.5201 25.1165 3.23455 25.4956C2.89257 25.9127 2.52554 26.3307 2.10929 26.7236C1.69303 27.1416 1.2526 27.5095 0.763805 27.854C0.71458 27.8782 0.690399 27.9024 0.641174 27.9274V27.9767C1.52214 27.945 2.3877 27.7362 3.18619 27.3627H3.18533Z" fill="#050038"/>
</svg>
